<svg aria-hidden="true" class="icon" width="32" height="32" viewBox="0 0 32 32" xmlns="http://www.w3.org/2000/svg"><g  fill-rule="evenodd"><path d="M9.202 24.563C11.376 27.248 14.954 29 19 29c1.857 0 3.616-.37 5.186-1.028L31 31l-2.006-6.686C30.261 22.649 31 20.65 31 18.5c0-2.663-1.133-5.094-3-6.945C27.967 18.985 21.264 25 13 25c-1.312 0-2.585-.152-3.798-.437z"/><path d="M2.793 17.024C1.656 15.419 1 13.527 1 11.5 1 5.701 6.373 1 13 1s12 4.701 12 10.5S19.627 22 13 22c-2.299 0-4.446-.565-6.271-1.546L1 23l1.793-5.976z"/></g></svg>