<svg aria-hidden="true" class="icon" width="32" height="32" viewBox="0 0 32 32" xmlns="http://www.w3.org/2000/svg"><g  fill-rule="evenodd"><path d="M0 64c17.673 0 32-14.327 32-32C32 14.327 17.673 0 0 0c-17.673 0-32 14.327-32 32 0 17.673 14.327 32 32 32zm0-6c14.36 0 26-11.64 26-26S14.36 6 0 6s-26 11.64-26 26 11.64 26 26 26z"/><path d="M0 52c11.046 0 20-8.954 20-20S11.046 12 0 12s-20 8.954-20 20 8.954 20 20 20zm0-6c7.732 0 14-6.268 14-14S7.732 18 0 18s-14 6.268-14 14 6.268 14 14 14z"/><circle cx="4" cy="28" r="4"/></g></svg>