<svg aria-hidden="true" class="icon" width="32" height="32" viewBox="0 0 32 32" xmlns="http://www.w3.org/2000/svg" xmlns:xlink="http://www.w3.org/1999/xlink"><defs><rect id="a" width="32" height="32" rx="8"/><mask id="b" x="0" y="0" width="32" height="32" fill="#fff"><use xlink:href="#a"/></mask></defs><g fill="none" fill-rule="evenodd"><use stroke="#D40" mask="url(#b)" stroke-width="2" fill="#F60" xlink:href="#a"/><path d="M15.628 49C12.183 50.911 8.218 52 4 52a23.892 23.892 0 0 1-11.628-3h23.256zM28 28C28 14.745 17.255 4 4 4v4c11.046 0 20 8.954 20 20h4zm-43-14.665A23.896 23.896 0 0 0-20 28c0 5.522 1.865 10.61 5 14.665v-8.403c-.649-1.97-1-4.075-1-6.262 0-2.187.351-4.292 1-6.262v-8.403z" fill="#FFF"/><path d="M20 28c0-8.837-7.163-16-16-16v4c6.627 0 12 5.373 12 12h4z" fill="#FFF"/><circle fill="#FFF" cx="7.5" cy="24.5" r="3.5"/></g></svg>