<svg aria-hidden="true" class="icon" width="32" height="32" viewBox="0 0 32 32" xmlns="http://www.w3.org/2000/svg"><path d="M19 27.622a11.931 11.931 0 0 0 3.247-1.375L25.5 29.5l4-4-3.253-3.253A11.931 11.931 0 0 0 27.622 19H32v-6h-4.378a11.931 11.931 0 0 0-1.375-3.247L29.5 6.5l-4-4-3.253 3.253A11.931 11.931 0 0 0 19 4.378V0h-6v4.378c-1.16.299-2.251.766-3.247 1.375L6.5 2.5l-4 4 3.253 3.253A11.931 11.931 0 0 0 4.378 13H0v6h4.378c.299 1.16.766 2.251 1.375 3.247L2.5 25.5l4 4 3.253-3.253A11.931 11.931 0 0 0 13 27.622V32h6v-4.378zM16 19a3 3 0 1 0 0-6 3 3 0 0 0 0 6z"  fill-rule="evenodd"/></svg>