<svg aria-hidden="true" class="icon" width="32" height="32" viewBox="0 0 32 32" xmlns="http://www.w3.org/2000/svg"><g  fill-rule="evenodd"><path d="M18 6.006C18 4.898 18.902 4 20.009 4h7.982C29.101 4 30 4.897 30 6.005v16A5.99 5.99 0 0 1 24.01 28H20v-5h2.995A2.003 2.003 0 0 0 25 20.995V18h-4.994A2.005 2.005 0 0 1 18 15.994V6.006zM2 6.006C2 4.898 2.902 4 4.009 4h7.982C13.101 4 14 4.897 14 6.005v16A5.99 5.99 0 0 1 8.01 28H4v-5h2.995A2.003 2.003 0 0 0 9 20.995V18H4.006A2.005 2.005 0 0 1 2 15.994V6.006z"/></g></svg>