<svg aria-hidden="true" class="icon" width="32" height="32" viewBox="0 0 32 32" xmlns="http://www.w3.org/2000/svg"><g  fill-rule="evenodd"><path d="M21.51 13.897a8.006 8.006 0 0 0-1.383-1.85C17.01 8.927 11.941 8.918 8.82 12.04L3.15 17.71c-3.12 3.12-3.118 8.184.006 11.308 3.118 3.118 8.187 3.127 11.308.006l4.647-4.648c-1.732.516-3.343.486-4.741-.107l-2.325 2.324a4.575 4.575 0 0 1-6.465 0 4.574 4.574 0 0 1 0-6.465l5.657-5.656a4.575 4.575 0 0 1 7.648 2.049l2.624-2.623z"/><path d="M10.664 18.277c.36.664.82 1.289 1.382 1.85 3.118 3.118 8.187 3.127 11.308.006l5.669-5.668c3.12-3.12 3.118-8.184-.006-11.308C25.899.039 20.83.03 17.709 3.15l-4.648 4.648c1.732-.516 3.344-.487 4.742.107l2.324-2.325a4.575 4.575 0 0 1 6.465 0 4.574 4.574 0 0 1 0 6.465l-5.656 5.657a4.575 4.575 0 0 1-7.649-2.05l-2.623 2.624z"/></g></svg>