<svg 
  xmlns="http://www.w3.org/2000/svg" 
  xmlns:xlink="http://www.w3.org/1999/xlink">
  
  <symbol id="404" viewBox="0 0 32 32">
    <path d="M1 22L7 2h3L5 19h5v11H7v-8zm21 0l6-20h3l-5 17h5v11h-3v-8zM12 6.499a4.5 4.5 0 1 1 9 0V25.5a4.5 4.5 0 1 1-9 0v-19zm3-.004C15 5.669 15.666 5 16.5 5c.828 0 1.5.67 1.5 1.495v19.01c0 .826-.666 1.495-1.5 1.495-.828 0-1.5-.67-1.5-1.495V6.495z" fill-rule="evenodd"/>
  </symbol>

  <symbol id="close" viewBox="0 0 32 32">
    <path d="M13 16L2 27l3 3 11-11 11 11 3-3-11-11L30 5l-3-3-11 11L5 2 2 5l11 11z" fill-rule="evenodd"/>
  </symbol>

  <symbol id="comment" viewBox="0 0 32 32">
    <path d="M22.46 25.649A15.84 15.84 0 0 1 16 27C8.268 27 2 21.627 2 15S8.268 3 16 3s14 5.373 14 12c0 2.404-.824 4.642-2.244 6.52L30 29l-7.54-3.351z" fill-rule="evenodd"/>
  </symbol>

  <symbol id="comments" viewBox="0 0 32 32">
    <g fill-rule="evenodd">
      <path d="M9.202 24.563C11.376 27.248 14.954 29 19 29c1.857 0 3.616-.37 5.186-1.028L31 31l-2.006-6.686C30.261 22.649 31 20.65 31 18.5c0-2.663-1.133-5.094-3-6.945C27.967 18.985 21.264 25 13 25c-1.312 0-2.585-.152-3.798-.437z"/>
      <path d="M2.793 17.024C1.656 15.419 1 13.527 1 11.5 1 5.701 6.373 1 13 1s12 4.701 12 10.5S19.627 22 13 22c-2.299 0-4.446-.565-6.271-1.546L1 23l1.793-5.976z"/>
    </g>
  </symbol>

  <symbol id="date" viewBox="0 0 32 32">
    <g fill="none" fill-rule="evenodd">
      <path d="M28 4h4v26H0V4h4V1h4v3h16V1h4v3z"/>
      <path fill="#FFF" d="M10 15h5v5h-5zm-7 0h5v5H3zm14 0h5v5h-5zm7 0h5v5h-5zM10 8h5v5h-5zm7 0h5v5h-5zm7 0h5v5h-5zM10 22h5v5h-5zm-7 0h5v5H3zm14 0h5v5h-5z"/>
    </g>
  </symbol>

  <symbol id="draggable" viewBox="0 0 32 32">
    <path d="M21 4h-3v3h3V4zm4 0h3v3h-3V4zm-4 7h-3v3h3v-3zm4 0h3v3h-3v-3zm-4 7h-3v3h3v-3zm4 0h3v3h-3v-3zm-4 7h-3v3h3v-3zm4 0h3v3h-3v-3zM14 4h-3v3h3V4zm0 7h-3v3h3v-3zm0 7h-3v3h3v-3zm0 7h-3v3h3v-3zM7 4H4v3h3V4zm0 7H4v3h3v-3zm0 7H4v3h3v-3zm0 7H4v3h3v-3z" fill-rule="evenodd"/>
  </symbol>

  <symbol id="ellipsis" viewBox="0 0 32 32">
    <g fill-rule="evenodd">
      <circle cx="5" cy="16" r="3"/>
      <circle cx="27" cy="16" r="3"/>
      <circle cx="16" cy="16" r="3"/>
    </g>
  </symbol>

  <symbol id="email" viewBox="0 0 32 32">
    <path d="M32 3L16 19 0 3h32zM0 29h32V9L16 25 0 9v20z" fill-rule="evenodd"/>
  </symbol>

  <symbol id="error" viewBox="0 0 32 32">
    <path d="M16 32c8.837 0 16-7.163 16-16S24.837 0 16 0 0 7.163 0 16s7.163 16 16 16zm0-5a3 3 0 1 0 0-6 3 3 0 0 0 0 6zM12 6h8l-2 12h-4L12 6z" fill-rule="evenodd"/>
  </symbol>

  <symbol id="feed-button" viewBox="0 0 32 32">
    <g fill="none" fill-rule="evenodd">
      <use stroke="#D40" mask="url(#b)" stroke-width="2" fill="#F60" xlink:href="#a"/>
      <path d="M15.628 49A23.9 23.9 0 0 1 4 52a23.892 23.892 0 0 1-11.628-3h23.256zM28 28C28 14.745 17.255 4 4 4v4c11.046 0 20 8.954 20 20h4zm-43-14.665A23.896 23.896 0 0 0-20 28c0 5.522 1.865 10.61 5 14.665v-8.403c-.649-1.97-1-4.075-1-6.262 0-2.187.351-4.292 1-6.262v-8.403z" fill="#FFF"/>
      <path d="M20 28c0-8.837-7.163-16-16-16v4c6.627 0 12 5.373 12 12h4z" fill="#FFF"/>
      <circle fill="#FFF" cx="7.5" cy="24.5" r="3.5"/>
    </g>
  </symbol>

  <symbol id="feed" viewBox="0 0 32 32">
    <g fill-rule="evenodd">
      <path d="M0 64c17.673 0 32-14.327 32-32C32 14.327 17.673 0 0 0c-17.673 0-32 14.327-32 32 0 17.673 14.327 32 32 32zm0-6c14.36 0 26-11.64 26-26S14.36 6 0 6s-26 11.64-26 26 11.64 26 26 26z"/>
      <path d="M0 52c11.046 0 20-8.954 20-20S11.046 12 0 12s-20 8.954-20 20 8.954 20 20 20zm0-6c7.732 0 14-6.268 14-14S7.732 18 0 18s-14 6.268-14 14 6.268 14 14 14z"/>
      <circle cx="4" cy="28" r="4"/>
    </g>
  </symbol>

  <symbol id="folder" viewBox="0 0 32 32">
    <g fill-rule="evenodd">
      <path d="M12 4c0-1.105-.902-2-2.009-2H2.01C.899 2 0 2.902 0 3.995V23l4.284-11.137C4.679 10.833 5.898 10 6.99 10H25V8a2 2 0 0 0-2.003-2H12V4z"/>
      <path d="M6.277 13.859C6.677 12.832 7.89 12 9.004 12h20.992c1.107 0 1.68.832 1.281 1.859L25.723 28.14c-.4 1.028-1.613 1.86-2.727 1.86H2.004c-1.107 0-1.68-.832-1.281-1.859L6.277 13.86z"/>
    </g>
  </symbol>

  <symbol id="gear" viewBox="0 0 32 32">
    <path d="M19 27.622a11.931 11.931 0 0 0 3.247-1.375L25.5 29.5l4-4-3.253-3.253A11.931 11.931 0 0 0 27.622 19H32v-6h-4.378a11.931 11.931 0 0 0-1.375-3.247L29.5 6.5l-4-4-3.253 3.253A11.931 11.931 0 0 0 19 4.378V0h-6v4.378c-1.16.299-2.251.766-3.247 1.375L6.5 2.5l-4 4 3.253 3.253A11.931 11.931 0 0 0 4.378 13H0v6h4.378c.299 1.16.766 2.251 1.375 3.247L2.5 25.5l4 4 3.253-3.253A11.931 11.931 0 0 0 13 27.622V32h6v-4.378zM16 19a3 3 0 1 0 0-6 3 3 0 0 0 0 6z" fill-rule="evenodd"/>
  </symbol>

  <symbol id="heart-full" viewBox="0 0 32 32">
    <path d="M16 31S1 22 1 10c0-5 3.582-8 8-8a7.998 7.998 0 0 1 7 4.124A7.998 7.998 0 0 1 23 2c4.418 0 8 3 8 8 0 13-15 21-15 21z" fill-rule="evenodd"/>
  </symbol>

  <symbol id="help" viewBox="0 0 32 32">
    <path d="M16 32c8.837 0 16-7.163 16-16S24.837 0 16 0 0 7.163 0 16s7.163 16 16 16zm0-5a3 3 0 1 0 0-6 3 3 0 0 0 0 6zm2-18a1 1 0 0 1 1 1.01v1.98c0 .558-.444 1.01-1 1.01a4 4 0 0 0-4 4v1h4c0-.552.444-1 1-1 2.21 0 4-1.797 4-3.996v-3.002A5 5 0 0 0 17.992 5h-2.984A5.003 5.003 0 0 0 10 10.01V11h4v-1c0-.552.444-1 1-1h3z" fill-rule="evenodd"/>
  </symbol>

  <symbol id="home" viewBox="0 0 32 32">
    <g fill-rule="evenodd">
      <path d="M0 15L16 0l16 15-3 3L16 5 3 18z"/>
      <path d="M4 20L16 8l12 12v12h-8V19h-8v13H4z"/>
    </g>
  </symbol>

  <symbol id="info" viewBox="0 0 32 32">
    <path d="M16 32c8.837 0 16-7.163 16-16S24.837 0 16 0 0 7.163 0 16s7.163 16 16 16zm0-21a3 3 0 1 0 0-6 3 3 0 0 0 0 6zm-3 3h6v12h-6V14z" fill-rule="evenodd"/>
  </symbol>

  <symbol id="link" viewBox="0 0 32 32"/>
  <symbol id="location" viewBox="0 0 32 32">
    <path d="M16 32s12-10 12-20c0-6.627-5.373-12-12-12S4 5.373 4 12c0 10 12 20 12 20zm0-14a6 6 0 1 0 0-12 6 6 0 0 0 0 12z" fill-rule="evenodd"/>
  </symbol>

  <symbol id="lock" viewBox="0 0 32 32">
    <path d="M25 14V9a9 9 0 0 0-9-9 9 9 0 0 0-9 9v5H5v18h22V14h-2zm-14 0V9.009A5.008 5.008 0 0 1 16 4c2.761 0 5 2.24 5 5.009V14H11z" fill-rule="evenodd"/>
  </symbol>

  <symbol id="menu-grid-big" viewBox="0 0 32 32">
    <path d="M30 4H18v10h12V4zm0 14H18v10h12V18zM14 4H2v10h12V4zm0 14H2v10h12V18z" fill-rule="evenodd"/>
  </symbol>

  <symbol id="menu-grid-small" viewBox="0 0 32 32">
    <path d="M19 3h-6v6h6V3zm4 0h6v6h-6V3zm-4 10h-6v6h6v-6zm4 0h6v6h-6v-6zm-4 10h-6v6h6v-6zm4 0h6v6h-6v-6zM9 3H3v6h6V3zm0 10H3v6h6v-6zm0 10H3v6h6v-6z" fill-rule="evenodd"/>
  </symbol>

  <symbol id="menu-rows" viewBox="0 0 32 32">
    <path d="M2 4h28v4H2V4zm0 10h28v4H2v-4zm0 10h28v4H2v-4z" fill-rule="evenodd"/>
  </symbol>

  <symbol id="navigate-bottom" viewBox="0 0 32 32">
    <path d="M16.5 18.5l-11-11-3 3 14 14 14-14-3-3z" fill-rule="evenodd"/>
  </symbol>

  <symbol id="navigate-next" viewBox="0 0 32 32">
    <path d="M19 16L8 27l3 3 14-14L11 2 8 5z" fill-rule="evenodd"/>
  </symbol>

  <symbol id="navigate-prev" viewBox="0 0 32 32">
    <path d="M14 16l11 11-3 3L8 16 22 2l3 3z" fill-rule="evenodd"/>
  </symbol>

  <symbol id="navigate-top" viewBox="0 0 32 32">
    <path d="M16.5 13.5l11 11 3-3-14-14-14 14 3 3z" fill-rule="evenodd"/>
  </symbol>

  <symbol id="post-aside" viewBox="0 0 32 32">
    <path d="M16 32c8.837 0 16-7.163 16-16S24.837 0 16 0 0 7.163 0 16s7.163 16 16 16zm0-13a3 3 0 1 0 0-6 3 3 0 0 0 0 6z" fill-rule="evenodd"/>
  </symbol>

  <symbol id="post-audio" viewBox="0 0 32 32">
    <path d="M7 10H0v12h7l12 10V0zm18.364-.364l2.121-2.121A11.962 11.962 0 0 1 31 16c0 3.314-1.343 6.314-3.515 8.485l-2.121-2.121A8.972 8.972 0 0 0 28 16a8.972 8.972 0 0 0-2.636-6.364zm-4.243 4.243l2.122-2.122A5.981 5.981 0 0 1 25 16a5.981 5.981 0 0 1-1.757 4.243L21.12 18.12A2.99 2.99 0 0 0 22 16a2.99 2.99 0 0 0-.879-2.121z" fill-rule="evenodd"/>
  </symbol>

  <symbol id="post-chat" viewBox="0 0 32 32">
    <path d="M22.46 25.649A15.84 15.84 0 0 1 16 27C8.268 27 2 21.627 2 15S8.268 3 16 3s14 5.373 14 12c0 2.404-.824 4.642-2.244 6.52L30 29l-7.54-3.351z" fill-rule="evenodd"/>
  </symbol>

  <symbol id="post-gallery" viewBox="0 0 32 32">
    <path d="M0 2h17v15H0zm0 18h12v10H0zm15 0h17v10H15zm5-9h12v6H20zm0-9h12v6H20z" fill-rule="evenodd"/>
  </symbol>

  <symbol id="post-image" viewBox="0 0 32 32">
    <path d="M8.667 7H2.002A1.992 1.992 0 0 0 0 8.991V27.01C0 28.11.896 29 2.002 29h27.996A1.992 1.992 0 0 0 32 27.009V8.99A1.995 1.995 0 0 0 29.998 7h-6.665L20 2h-8L8.667 7zM16 27a9 9 0 1 0 0-18 9 9 0 0 0 0 18zm0-3a6 6 0 1 0 0-12 6 6 0 0 0 0 12z" fill-rule="evenodd"/>
  </symbol>

  <symbol id="post-link" viewBox="0 0 32 32">
    <g fill-rule="evenodd">
      <path d="M21.51 13.897a8.006 8.006 0 0 0-1.383-1.85c-3.117-3.12-8.186-3.129-11.307-.007l-5.67 5.67c-3.12 3.12-3.118 8.184.006 11.308 3.118 3.118 8.187 3.127 11.308.006l4.647-4.648c-1.732.516-3.343.486-4.741-.107l-2.325 2.324a4.575 4.575 0 0 1-6.465 0 4.574 4.574 0 0 1 0-6.465l5.657-5.656a4.575 4.575 0 0 1 7.648 2.049l2.624-2.623z"/>
      <path d="M10.664 18.277c.36.664.82 1.289 1.382 1.85 3.118 3.118 8.187 3.127 11.308.006l5.669-5.668c3.12-3.12 3.118-8.184-.006-11.308C25.899.039 20.83.03 17.709 3.15l-4.648 4.648c1.732-.516 3.344-.487 4.742.107l2.324-2.325a4.575 4.575 0 0 1 6.465 0 4.574 4.574 0 0 1 0 6.465l-5.656 5.657a4.575 4.575 0 0 1-7.649-2.05l-2.623 2.624z"/>
    </g>
  </symbol>

  <symbol id="post-quote" viewBox="0 0 32 32">
    <path d="M18 6.006A2.01 2.01 0 0 1 20.009 4h7.982C29.101 4 30 4.897 30 6.005v16A5.99 5.99 0 0 1 24.01 28H20v-5h2.995A2.003 2.003 0 0 0 25 20.995V18h-4.994A2.005 2.005 0 0 1 18 15.994V6.006zm-16 0A2.01 2.01 0 0 1 4.009 4h7.982C13.101 4 14 4.897 14 6.005v16A5.99 5.99 0 0 1 8.01 28H4v-5h2.995A2.003 2.003 0 0 0 9 20.995V18H4.006A2.005 2.005 0 0 1 2 15.994V6.006z" fill-rule="evenodd"/>
  </symbol>

  <symbol id="post-standard" viewBox="0 0 32 32">
    <path d="M21 2h-9v3h9V2zm3 0h6v3h-6V2zM9 2H2v3h7V2zM8 8h10v3H8V8zM5 8H2v3h3V8zm16 0h7v3h-7V8zm-7 6h10v3H14v-3zm-3 0H2v3h9v-3zm16 0h3v3h-3v-3zM9 20h12v3H9v-3zm-3 0H2v3h4v-3zm18 0h6v3h-6v-3zm-13 6H2v3h9v-3zm3 0h7v3h-7v-3z" fill-rule="evenodd"/>
  </symbol>

  <symbol id="post-status" viewBox="0 0 32 32">
    <path d="M16 32c8.837 0 16-7.163 16-16S24.837 0 16 0 0 7.163 0 16s7.163 16 16 16zm0-10a6 6 0 1 0 0-12 6 6 0 0 0 0 12z" fill-rule="evenodd"/>
  </symbol>

  <symbol id="post-video" viewBox="0 0 32 32">
    <path d="M16 32c8.837 0 16-7.163 16-16S24.837 0 16 0 0 7.163 0 16s7.163 16 16 16zM11 7l14 9-14 9V7z" fill-rule="evenodd"/>
  </symbol>

  <symbol id="refresh" viewBox="0 0 32 32">
    <g fill-rule="evenodd">
      <path d="M28.652 19C27.298 24.733 22.147 29 16 29 9.853 29 4.702 24.733 3.348 19h3.11c1.274 4.057 5.064 7 9.542 7s8.268-2.943 9.542-7h3.11zm0-6C27.298 7.267 22.147 3 16 3 9.853 3 4.702 7.267 3.348 13h3.11C7.732 8.943 11.522 6 16 6s8.268 2.943 9.542 7h3.11z"/>
      <path d="M22 17h8v8zm-12-2H2V7z"/>
    </g>
  </symbol>

  <symbol id="reply" viewBox="0 0 32 32">
    <path d="M15 12h1.992C21.967 12 26 16.024 26 20.993V25c0-2.761-2.69-5-5.999-5H15v5l-9-9 9-9v5z" fill-rule="evenodd"/>
  </symbol>

  <symbol id="search" viewBox="0 0 32 32">
    <path d="M20.57 23.57A12.94 12.94 0 0 1 13 26C5.82 26 0 20.18 0 13S5.82 0 13 0s13 5.82 13 13c0 2.824-.9 5.438-2.43 7.57L32 29l-3 3-8.43-8.43zM13 23c5.523 0 10-4.477 10-10S18.523 3 13 3 3 7.477 3 13s4.477 10 10 10z" fill-rule="evenodd"/>
  </symbol>

  <symbol id="star-full" viewBox="0 0 32 32">
    <path d="M16 24.5L6 31l3.5-12L2 11h10l4-10 4 10h10l-7.5 8L26 31z" fill-rule="evenodd"/>
  </symbol>

  <symbol id="sticky" viewBox="0 0 32 32"/>
  <symbol id="success" viewBox="0 0 32 32">
    <path d="M22 10l3 3-11 11-7-7 3-3 4 4 8-8zm10 6c0-8.837-7.163-16-16-16S0 7.163 0 16s7.163 16 16 16 16-7.163 16-16z" fill-rule="evenodd"/>
  </symbol>

  <symbol id="svg"/>
  <symbol id="tag" viewBox="0 0 32 32">
    <path d="M0 13V0h13l19 19-13 13L0 13zm7-3a3 3 0 1 0 0-6 3 3 0 0 0 0 6z" fill-rule="evenodd"/>
  </symbol>

  <symbol id="time" viewBox="0 0 32 32">
    <path d="M18 15V4h-4v13l6.5 6.5 3-3L18 15zm-2 17c8.837 0 16-7.163 16-16S24.837 0 16 0 0 7.163 0 16s7.163 16 16 16z" fill-rule="evenodd"/>
  </symbol>

  <symbol id="user" viewBox="0 0 32 32">
    <path d="M16 15c3.314 0 6-4.686 6-8s-1-7-6-7-6 3.686-6 7 2.686 8 6 8zM4 24.492c0-4.69 3.777-8.964 8-9.492l2.338 3.508c.918 1.376 2.405 1.378 3.324 0L20 15c4.418.552 8 4.812 8 9.492V32H4v-7.508z" fill-rule="evenodd"/>
  </symbol>

  <symbol id="video-games" viewBox="0 0 32 32">
    <path d="M8 13v-3H6v3H3v2h3v3h2v-3h3v-2H8zm-8-.006A5.997 5.997 0 0 1 6 7h20c3.314 0 6 2.695 6 5.994v8.011A3.998 3.998 0 0 1 27.99 25H25c-1.657 0-3.696-1.16-4.544-2.573l-.94-1.567c-.285-.475-.967-.86-1.507-.86h-4.018c-.547 0-1.226.392-1.507.86l-.94 1.567C10.69 23.847 8.65 25 7 25H4.01A4.004 4.004 0 0 1 0 21.005v-8.011zM23 18a2 2 0 1 0 0-4 2 2 0 0 0 0 4zm4-4a2 2 0 1 0 0-4 2 2 0 0 0 0 4z" fill-rule="evenodd"/>
  </symbol>

</svg>