<svg aria-hidden="true" class="icon" width="32" height="32" viewBox="0 0 32 32" xmlns="http://www.w3.org/2000/svg"><path d="M8 13v-3H6v3H3v2h3v3h2v-3h3v-2H8zm-8-.006A5.997 5.997 0 0 1 6 7h20c3.314 0 6 2.695 6 5.994v8.011A3.998 3.998 0 0 1 27.99 25H25c-1.657 0-3.696-1.16-4.544-2.573l-.94-1.567c-.285-.475-.967-.86-1.507-.86h-4.018c-.547 0-1.226.392-1.507.86l-.94 1.567C10.69 23.847 8.65 25 7 25H4.01A4.004 4.004 0 0 1 0 21.005v-8.011zM23 18a2 2 0 1 0 0-4 2 2 0 0 0 0 4zm4-4a2 2 0 1 0 0-4 2 2 0 0 0 0 4z"  fill-rule="evenodd"/></svg>