<svg xmlns="http://www.w3.org/2000/svg" width="16" height="16" viewBox="0 0 16 16">
  <path fill="#111111" fill-rule="evenodd" d="M9.94593221,4.51218554 L13.6533741,4.51218554 L13.6533741,3.41187933 L9.94593221,3.41187933 L9.94593221,3.41187933 L9.94593221,4.51218554 L9.94593221,4.51218554 Z M10.8242272,6.91117249 C10.5879848,7.15998122 10.4389956,7.49704982 10.378083,7.92237827 L13.2615574,7.92237827 C13.2311011,7.46847044 13.0812888,7.12551785 12.8162364,6.89015823 C12.5478913,6.65479862 12.2178105,6.53795938 11.8227012,6.53795938 C11.3946662,6.53795938 11.0604696,6.66236375 10.8242272,6.91117249 C10.8242272,6.91117249 11.0604696,6.66236375 10.8242272,6.91117249 L10.8242272,6.91117249 L10.8242272,6.91117249 Z M13.3265858,5.43513146 C13.7735532,5.63854942 14.1414987,5.96132832 14.4312455,6.4026276 C14.6954748,6.7901304 14.8650425,7.24067595 14.9424181,7.75258312 C14.987691,8.05266663 15.0058002,8.48556021 14.9983919,9.04958272 L10.3369258,9.04958272 C10.3649127,9.70522736 10.5855153,10.1650192 11.0069652,10.4281176 C11.2621399,10.5920288 11.5691728,10.6744046 11.92971,10.6744046 C12.3091795,10.6744046 12.6195049,10.5743768 12.8573936,10.3743211 C12.9882735,10.2667282 13.1035137,10.1171067 13.202291,9.92461615 L14.9103155,9.92461615 C14.8650425,10.3121189 14.6576102,10.7063463 14.2904878,11.1064577 C13.7175794,11.741088 12.9150137,12.0588235 11.8836139,12.0588235 C11.0316595,12.0588235 10.2801288,11.7923628 9.63066795,11.2552386 C8.97791452,10.7189549 8.65359567,9.84644313 8.65359567,8.6402251 C8.65359567,7.50713666 8.94745818,6.63966836 9.53436006,6.03445791 C10.1229082,5.43092861 10.8843167,5.12832339 11.8218781,5.12832339 C12.3791468,5.12832339 12.8804416,5.23087294 13.3265858,5.43513146 C13.3265858,5.43513146 12.8804416,5.23087294 13.3265858,5.43513146 L13.3265858,5.43513146 L13.3265858,5.43513146 Z M2.7244873,7.9467548 L2.7244873,10.3020321 L4.82515155,10.3020321 C5.20050534,10.3020321 5.49354471,10.2507573 5.70180022,10.1473672 C6.08126974,9.9540361 6.27059293,9.58754755 6.27059293,9.0445393 C6.27059293,8.5839069 6.0878549,8.26785256 5.7199094,8.0955357 C5.51412332,8.00055128 5.22519967,7.94927651 4.85478474,7.9467548 L2.7244873,7.9467548 L2.7244873,7.9467548 L2.7244873,7.9467548 L2.7244873,7.9467548 Z M2.7244873,4.53488093 L2.7244873,6.4841629 L4.82844412,6.4841629 C5.20297478,6.4841629 5.50836131,6.4110333 5.74378058,6.26561468 C5.97755356,6.11935549 6.09526319,5.85961934 6.09526319,5.48976852 C6.09526319,5.07620805 5.94051207,4.80554449 5.63100981,4.67273442 C5.36266477,4.58111228 5.02188303,4.53488093 4.60784145,4.53488093 L2.7244873,4.53488093 L2.7244873,4.53488093 L2.7244873,4.53488093 L2.7244873,4.53488093 Z M7.42299494,3.94227904 C7.68722426,4.31801385 7.8197505,4.76687826 7.8197505,5.29055341 C7.8197505,5.82935882 7.68722426,6.26393354 7.41970237,6.59175586 C7.26989011,6.77500014 7.05011058,6.94311415 6.75954064,7.09441676 C7.20074598,7.25916849 7.53329628,7.51974521 7.75966096,7.87530634 C7.98355621,8.22918634 8.09632698,8.66207992 8.09632698,9.16978424 C8.09632698,9.69345938 7.96791647,10.163338 7.7102723,10.5777391 C7.54728973,10.8542866 7.34314995,11.086284 7.09785295,11.2737311 C6.82209961,11.4897576 6.49695761,11.6368574 6.12078067,11.7175521 C5.74460372,11.7982468 5.33797044,11.8360725 4.89841139,11.8360725 L1,11.8360725 L1,3 L5.18074988,3 C6.23602087,3.01597083 6.98261275,3.32950346 7.42299494,3.94227904 L7.42299494,3.94227904 Z"/>
</svg>
