<svg xmlns="http://www.w3.org/2000/svg" width="16" height="16" viewBox="0 0 16 16">
  <path fill="#111111" fill-rule="evenodd" d="M10.4916795,11.3607078 L5.49262363,11.3607078 C5.02254219,11.3607078 4.64333766,10.9763682 4.64333766,10.517136 C4.64333766,10.0546117 5.02254219,9.67685615 5.49262363,9.67685615 L10.4916795,9.67685615 C10.9584563,9.67685615 11.3376608,10.0546117 11.3376608,10.517136 C11.3376608,10.9763682 10.9584563,11.3607078 10.4916795,11.3607078 L10.4916795,11.3607078 L10.4916795,11.3607078 L10.4916795,11.3607078 Z M5.49262363,4.61377932 L7.95125693,4.61377932 C8.42216452,4.61377932 8.80219521,4.99318088 8.80219521,5.45735113 C8.80219521,5.91905238 8.42216452,6.30339192 7.95125693,6.30339192 L5.49262363,6.30339192 C5.02254219,6.30339192 4.64333766,5.91905238 4.64333766,5.45735113 C4.64333766,4.99318088 5.02254219,4.61377932 5.49262363,4.61377932 C5.49262363,4.61377932 5.02254219,4.61377932 5.49262363,4.61377932 L5.49262363,4.61377932 L5.49262363,4.61377932 Z M14.95704,6.812004 L14.8405523,6.57004291 L14.6439278,6.4161425 C14.3853417,6.21368526 13.080845,6.42931045 12.7264251,6.11163365 C12.4777529,5.88119452 12.4422283,5.47051908 12.3662221,4.91499618 C12.225776,3.83275528 12.1365514,3.77761448 11.9671899,3.41220387 C11.3508793,2.11269179 9.68617963,1.13414849 8.5403045,1 L5.43561903,1 C2.99598725,1 1,2.99165246 1,5.42525425 L1,10.5846217 C1,13.0116395 2.99598725,15 5.43561903,15 L10.5354656,15 C12.9750974,15 14.95704,13.0116395 14.9719108,10.5846217 L15,7.00952325 L14.95704,6.812004 L14.95704,6.812004 Z"/>
</svg>
