<svg xmlns="http://www.w3.org/2000/svg" width="16" height="16" viewBox="0 0 16 16">
  <path fill="#111111" fill-rule="evenodd" d="M2.61121715,9.52777778 C2.61121715,9.52777778 1.85854237,7.93678161 4.04759651,6.57279693 L5.21109379,8.85632184 L2.61121715,9.52777778 L2.61121715,9.52777778 L2.61121715,9.52777778 L2.61121715,9.52777778 Z M6.15868435,5.67528736 C10.0080211,4.61494253 13.2216326,6.78256705 13.2216326,6.78256705 L10.5727771,7.4683908 L9.81010663,6.11015326 C9.09241673,5.98371648 8.27377046,5.94348659 7.4041462,6.08333333 L9.20836663,9.59578544 L17,7.44444444 C17,7.44444444 14.174221,3.19157088 5.74486315,4.5651341 C5.69588432,4.57375479 5.65190332,4.58524904 5.60392405,4.59291188 L4.78427821,3 L2.35832642,3.26436782 L3.34889841,5.20210728 C-1.76589158,7.22701149 0.500129313,12 0.500129313,12 L8.3037575,9.84770115 L6.15868435,5.67528736 L6.15868435,5.67528736 Z"/>
</svg>
