<svg xmlns="http://www.w3.org/2000/svg" width="16" height="16" viewBox="0 0 16 16">
  <path fill="#111111" fill-rule="evenodd" d="M11.3409184,12.9574418 C11.2800024,12.5969904 10.9614276,10.8424641 10.1769271,8.68798495 C12.1073088,8.37937926 13.7792086,8.90853515 13.9026871,8.94968258 C13.6367966,10.6145074 12.6827189,12.0521984 11.3409184,12.9574418 C11.3409184,12.9574418 12.6827189,12.0521984 11.3409184,12.9574418 L11.3409184,12.9574418 L11.3409184,12.9574418 Z M8.0004116,13.977898 C6.55324278,13.977898 5.22625978,13.4627322 4.19150938,12.6076887 C4.27053566,12.6710557 4.32568942,12.7122032 4.32568942,12.7122032 C4.32568942,12.7122032 5.47157053,10.2129085 9.0170518,8.97848577 C9.03022285,8.97354808 9.04421709,8.96943334 9.05738813,8.96614155 C9.89868878,11.1510698 10.245252,12.9813073 10.3341565,13.5038796 C9.61715764,13.8091935 8.827718,13.977898 8.0004116,13.977898 L8.0004116,13.977898 L8.0004116,13.977898 L8.0004116,13.977898 Z M2.02157935,8 C2.02157935,7.93581002 2.02487211,7.87326593 2.02651849,7.81072184 C2.13271006,7.81319069 5.0863174,7.87984952 8.16422649,6.95897014 C8.33545011,7.29391018 8.49926501,7.63461086 8.64908567,7.9744886 C8.57005939,7.99753115 8.49185629,8.02057371 8.4136532,8.04608512 C5.18756982,9.08958382 3.55106721,11.9913003 3.55106721,11.9913003 C3.55106721,11.9913003 3.55353678,11.9937691 3.55353678,11.9945921 C2.60110543,10.9354573 2.02157935,9.53562191 2.02157935,8 C2.02157935,8 2.02157935,9.53562191 2.02157935,8 L2.02157935,8 L2.02157935,8 Z M5.44934439,2.59322831 C5.52919386,2.70021162 6.63473864,4.19880085 7.66948903,6.03809076 C4.79902393,6.80096403 2.30722644,6.77133788 2.14999706,6.76804609 C2.53771976,4.91641194 3.78156053,3.38079003 5.44934439,2.59322831 C5.44934439,2.59322831 3.78156053,3.38079003 5.44934439,2.59322831 L5.44934439,2.59322831 L5.44934439,2.59322831 Z M6.56806021,2.19574418 C6.56806021,2.19656713 6.56723702,2.19739008 6.56723702,2.19739008 C6.56723702,2.19739008 6.55982831,2.19903597 6.54912683,2.20150482 C6.55571235,2.19903597 6.56147469,2.19821303 6.56806021,2.19574418 C6.56806021,2.19574418 6.56147469,2.19821303 6.56806021,2.19574418 L6.56806021,2.19574418 L6.56806021,2.19574418 Z M11.948433,3.51410769 C11.9336156,3.53715025 11.0824366,4.83329415 8.82524843,5.67763931 C7.80366908,3.80049377 6.6808373,2.31013402 6.59110954,2.19080649 C7.0430411,2.08135434 7.51472923,2.02210205 8.0004116,2.02210205 C9.51343564,2.02210205 10.8955724,2.58664472 11.948433,3.51410769 C11.948433,3.51410769 10.8955724,2.58664472 11.948433,3.51410769 L11.948433,3.51410769 L11.948433,3.51410769 Z M13.9767743,7.93992476 C13.8903393,7.92099694 11.8669371,7.48648013 9.81307697,7.74406301 C9.77027106,7.6420174 9.72828835,7.53914884 9.68383607,7.43628027 C9.55953431,7.14413355 9.42535427,6.85363273 9.28623508,6.56889255 C11.6471453,5.60521984 12.605339,4.21937456 12.6168636,4.20209264 C13.4548715,5.22172584 13.96278,6.52198448 13.9767743,7.93992476 C13.9767743,7.93992476 13.96278,6.52198448 13.9767743,7.93992476 L13.9767743,7.93992476 L13.9767743,7.93992476 Z M14.8584112,6.59111216 C14.7662139,6.14095932 14.6279179,5.69821303 14.4492856,5.27521749 C14.2747692,4.8596285 14.0566237,4.46049847 13.8039043,4.0860569 C13.5544776,3.71573007 13.2663609,3.36762285 12.9502558,3.05078768 C12.6333275,2.7339525 12.2851179,2.44674348 11.913859,2.19656713 C11.5401305,1.94309899 11.14006,1.72666353 10.725172,1.55055255 C10.3020521,1.37279567 9.85917563,1.23371738 9.40971365,1.14319304 C8.94872699,1.04773101 8.47456929,1 8.0004116,1 C7.52543071,1 7.05127301,1.04773101 6.59028635,1.14319304 C6.14082437,1.23371738 5.6979479,1.37279567 5.27482801,1.55055255 C4.85994002,1.72666353 4.45986947,1.94309899 4.08531781,2.19656713 C3.71488211,2.44674348 3.36667255,2.7339525 3.04974422,3.05078768 C2.73363909,3.36762285 2.44634562,3.71573007 2.19609573,4.0860569 C1.94337626,4.46049847 1.72523079,4.8596285 1.55071441,5.27521749 C1.37125889,5.69821303 1.23378609,6.14095932 1.14158876,6.59111216 C1.04774505,7.05031742 1,7.52598166 1,8 C1,8.47484129 1.04774505,8.94968258 1.14158876,9.41053374 C1.23378609,9.85904068 1.37125889,10.3026099 1.55071441,10.7247825 C1.72523079,11.1395486 1.94337626,11.5403245 2.19609573,11.914766 C2.44634562,12.2850929 2.73363909,12.6332001 3.04974422,12.9492123 C3.36667255,13.2660475 3.71488211,13.5532565 4.08531781,13.8034329 C4.45986947,14.0560781 4.85994002,14.2741594 5.27482801,14.4494474 C5.6979479,14.6280273 6.14082437,14.7646367 6.59028635,14.856807 C7.05127301,14.952269 7.52543071,15 8.0004116,15 C8.47456929,15 8.94872699,14.952269 9.40971365,14.856807 C9.85917563,14.7646367 10.3020521,14.6280273 10.725172,14.4494474 C11.14006,14.2741594 11.5401305,14.0560781 11.913859,13.8034329 C12.2851179,13.5532565 12.6333275,13.2660475 12.9502558,12.9492123 C13.2663609,12.6332001 13.5544776,12.2850929 13.8039043,11.914766 C14.0566237,11.5403245 14.2747692,11.1395486 14.4492856,10.7247825 C14.6279179,10.3026099 14.7662139,9.85904068 14.8584112,9.41053374 C14.952255,8.94968258 15,8.47484129 15,8 C15,7.52598166 14.952255,7.05031742 14.8584112,6.59111216 L14.8584112,6.59111216 Z"/>
</svg>
