<svg xmlns="http://www.w3.org/2000/svg" width="16" height="16" viewBox="0 0 16 16">
  <path fill="#111111" fill-rule="evenodd" d="M8,1 C4.13483333,1 1,4.13425 1,8 C1,11.0928333 3.0055,13.7166667 5.78741667,14.6424167 C6.13683333,14.7071667 6.25,14.4901667 6.25,14.3058333 L6.25,13.0026667 C4.30283333,13.4261667 3.89741667,12.1766667 3.89741667,12.1766667 C3.57891667,11.3675833 3.11983333,11.1523333 3.11983333,11.1523333 C2.48458333,10.71775 3.16825,10.7270833 3.16825,10.7270833 C3.87116667,10.7760833 4.241,11.4486667 4.241,11.4486667 C4.86516667,12.5185 5.87841667,12.2093333 6.278,12.03025 C6.34041667,11.5781667 6.52183333,11.269 6.7225,11.0945833 C5.16791667,10.9166667 3.53341667,10.3164167 3.53341667,7.63483333 C3.53341667,6.87008333 3.807,6.24591667 4.25441667,5.75591667 C4.18208333,5.57916667 3.94233333,4.86691667 4.32266667,3.90325 C4.32266667,3.90325 4.91066667,3.71541667 6.24825,4.62075 C6.8065,4.46558333 7.405,4.388 8,4.38508333 C8.595,4.388 9.19408333,4.46558333 9.7535,4.62075 C11.0899167,3.71541667 11.67675,3.90325 11.67675,3.90325 C12.0576667,4.8675 11.8179167,5.57975 11.7455833,5.75591667 C12.19475,6.24591667 12.466,6.87066667 12.466,7.63483333 C12.466,10.3234167 10.8285833,10.9155 9.26991667,11.08875 C9.52075,11.30575 9.75,11.7315833 9.75,12.3849167 L9.75,14.3058333 C9.75,14.4919167 9.862,14.7106667 10.21725,14.6418333 C12.9968333,13.7149167 15,11.0916667 15,8 C15,4.13425 11.86575,1 8,1 Z"/>
</svg>
