<svg xmlns="http://www.w3.org/2000/svg" width="16" height="16" viewBox="0 0 16 16">
  <path fill="#111111" fill-rule="evenodd" d="M13.6360536,12.2939862 C13.6360536,13.0338604 13.0343368,13.6354712 12.2943321,13.6354712 L3.70566792,13.6354712 C2.96566322,13.6354712 2.36394638,13.0338604 2.36394638,12.2939862 L2.36394638,6.56345894 L4.45390405,6.56345894 C4.27363594,7.00705426 4.17238946,7.49097643 4.17238946,7.9995885 C4.17238946,10.1097525 5.88946378,11.82817 8,11.82817 C10.1105362,11.82817 11.8276105,10.1097525 11.8276105,7.9995885 C11.8276105,7.49097643 11.7255409,7.00705426 11.546096,6.56345894 L13.6360536,6.56345894 L13.6360536,12.2939862 L13.6360536,12.2939862 L13.6360536,12.2939862 L13.6360536,12.2939862 Z M6.00223424,6.56345894 C6.45002352,5.94209629 7.17768109,5.53553583 8,5.53553583 C8.82231891,5.53553583 9.54997648,5.94209629 9.99776576,6.56345894 C10.2899812,6.96837341 10.4644873,7.46299453 10.4644873,7.9995885 C10.4644873,9.35835636 9.35818438,10.4636412 8,10.4636412 C6.64181562,10.4636412 5.53633584,9.35835636 5.53633584,7.9995885 C5.53633584,7.46299453 5.71084196,6.96837341 6.00223424,6.56345894 C6.00223424,6.56345894 5.71084196,6.96837341 6.00223424,6.56345894 L6.00223424,6.56345894 L6.00223424,6.56345894 Z M13.070555,2.61389689 L13.3800564,2.6122509 L13.3800564,4.98577391 L11.0143462,4.99235789 L11.0061148,2.62048087 L13.070555,2.61389689 L13.070555,2.61389689 L13.070555,2.61389689 L13.070555,2.61389689 Z M12.2943321,1 L3.70566792,1 C2.21413452,1 1,2.21309741 1,3.70519076 L1,12.2939862 C1,13.7860796 2.21413452,15 3.70566792,15 L12.2943321,15 C13.7858655,15 15,13.7860796 15,12.2939862 L15,3.70519076 C15,2.21309741 13.7858655,1 12.2943321,1 L12.2943321,1 Z"/>
</svg>
