<svg xmlns="http://www.w3.org/2000/svg" width="16" height="16" viewBox="0 0 16 16">
  <path fill="#111111" fill-rule="evenodd" d="M15,14.1764706 L11.905809,14.1764706 L11.905809,9.54446034 C11.905809,8.33141523 11.4218015,7.50472245 10.3574788,7.50472245 C9.54339135,7.50472245 9.09066322,8.06231829 8.87993885,8.60135573 C8.80091722,8.79368833 8.81326435,9.0619417 8.81326435,9.33272577 L8.81326435,14.1764706 L5.74788335,14.1764706 C5.74788335,14.1764706 5.78739417,5.97027943 5.74788335,5.22541237 L8.81326435,5.22541237 L8.81326435,6.62994652 C8.9943556,6.01498833 9.97389464,5.13852527 11.5370414,5.13852527 C13.4763641,5.13852527 15,6.42580402 15,9.19944265 L15,14.1764706 L15,14.1764706 L15,14.1764706 L15,14.1764706 Z M2.64793039,4.10431573 L2.62817498,4.10431573 C1.64040452,4.10431573 1,3.42102885 1,2.55468856 C1,1.66978986 1.65933678,1 2.66686265,1 C3.67356538,1 4.2925682,1.66810273 4.31232361,2.55215787 C4.31232361,3.41849815 3.67356538,4.10431573 2.64793039,4.10431573 L2.64793039,4.10431573 L2.64793039,4.10431573 L2.64793039,4.10431573 Z M1.35312794,5.22541237 L4.08184384,5.22541237 L4.08184384,14.1764706 L1.35312794,14.1764706 L1.35312794,14.1764706 L1.35312794,5.22541237 L1.35312794,5.22541237 Z"/>
</svg>
