<svg xmlns="http://www.w3.org/2000/svg" width="16" height="16" viewBox="0 0 16 16">
  <path fill="#111111" fill-rule="evenodd" d="M2.66016667,4.26741667 C2.67766667,4.09533333 2.61175,3.92558333 2.48341667,3.81008333 L1.17675,2.23508333 L1.17675,2 L5.23558333,2 L8.37275,8.88041667 L11.13075,2 L15,2 L15,2.23508333 L13.8823333,3.30666667 C13.7860833,3.38016667 13.73825,3.50091667 13.7580833,3.6205 L13.7580833,11.4943333 C13.73825,11.6133333 13.7860833,11.7340833 13.8823333,11.8075833 L14.97375,12.8791667 L14.97375,13.11425 L9.48341667,13.11425 L9.48341667,12.8791667 L10.6145,11.7813333 C10.7253333,11.6705 10.7253333,11.6378333 10.7253333,11.4680833 L10.7253333,5.10391667 L7.58175,13.0885833 L7.15708333,13.0885833 L3.49666667,5.10391667 L3.49666667,10.4554167 C3.46633333,10.68 3.541,10.9069167 3.69908333,11.0690833 L5.16966667,12.8529167 L5.16966667,13.0885833 L1,13.0885833 L1,12.8529167 L2.47058333,11.0690833 C2.62808333,10.9063333 2.69808333,10.67825 2.66016667,10.4554167 L2.66016667,4.26741667 L2.66016667,4.26741667 Z"/>
</svg>
