<svg xmlns="http://www.w3.org/2000/svg" width="16" height="16" viewBox="0 0 16 16">
  <path fill="#111111" fill-rule="evenodd" d="M8.0004116,1 C4.13470924,1 1,4.13333333 1,8 C1,10.8658436 2.7237608,13.3283951 5.19086259,14.4115226 C5.17110602,13.9234568 5.18756982,13.3358025 5.31187158,12.8032922 C5.44687482,12.236214 6.21244194,8.99012346 6.21244194,8.99012346 C6.21244194,8.99012346 5.98935732,8.54238683 5.98935732,7.88230453 C5.98935732,6.84444444 6.59110954,6.06995885 7.33938966,6.06995885 C7.97571588,6.06995885 8.28358911,6.54814815 8.28358911,7.12098765 C8.28358911,7.76049383 7.87528665,8.71851852 7.66537308,9.60493827 C7.49003352,10.3473251 8.03745517,10.9522634 8.77009467,10.9522634 C10.0962545,10.9522634 10.9894161,9.25020576 10.9894161,7.23127572 C10.9894161,5.69794239 9.95631211,4.54897119 8.07696831,4.54897119 C5.95396013,4.54897119 4.63109308,6.13251029 4.63109308,7.90041152 C4.63109308,8.51111111 4.8105486,8.94156379 5.09207973,9.27407407 C5.22214382,9.42798354 5.23943082,9.48888889 5.19250897,9.66502058 C5.15958135,9.79259259 5.08220145,10.1037037 5.05009702,10.2263374 C5.00317516,10.4032922 4.85994002,10.4674897 4.70024108,10.400823 C3.72146763,10.0016461 3.26624331,8.9308642 3.26624331,7.72674897 C3.26624331,5.7382716 4.94308226,3.35390947 8.26877168,3.35390947 C10.9416711,3.35390947 12.7008291,5.28888889 12.7008291,7.36378601 C12.7008291,10.1102881 11.174634,12.1613169 8.92320809,12.1613169 C8.16834245,12.1613169 7.4571059,11.7530864 7.21344152,11.2897119 C7.21344152,11.2897119 6.80678544,12.9020576 6.72117363,13.2131687 C6.57299935,13.7530864 6.28241312,14.2921811 6.01652261,14.7127572 C6.6462633,14.8987654 7.31140119,15 8.0004116,15 C11.866114,15 15,11.8658436 15,8 C15,4.13333333 11.866114,1 8.0004116,1"/>
</svg>
