<svg xmlns="http://www.w3.org/2000/svg" width="16" height="16" viewBox="0 0 16 16">
  <path fill="#111111" fill-rule="evenodd" d="M15,6.70441667 C15,5.85333333 14.3046667,5.1615 13.4500833,5.1615 C13.033,5.1615 12.655,5.32833333 12.37675,5.59666667 C11.3209167,4.90191667 9.89233333,4.45975 8.31033333,4.40316667 L9.17541667,1.67958333 L11.5180833,2.2285 L11.5145833,2.26233333 C11.5145833,2.95825 12.0833333,3.52408333 12.78275,3.52408333 C13.4815833,3.52408333 14.04975,2.95825 14.04975,2.26233333 C14.04975,1.56641667 13.481,1 12.78275,1 C12.2460833,1 11.78875,1.33483333 11.6038333,1.80441667 L9.07858333,1.21233333 C8.96833333,1.1855 8.85633333,1.24908333 8.82191667,1.35758333 L7.85708333,4.395 C6.20158333,4.41483333 4.70183333,4.8605 3.59875,5.57625 C3.32225,5.32075 2.95533333,5.16091667 2.54933333,5.16091667 C1.69475,5.16091667 1,5.85333333 1,6.70441667 C1,7.27025 1.31091667,7.76083333 1.76825,8.02916667 C1.73791667,8.19366667 1.71808333,8.35991667 1.71808333,8.52908333 C1.71808333,10.8105 4.52275,12.6666667 7.97083333,12.6666667 C11.4189167,12.6666667 14.2241667,10.8105 14.2241667,8.52908333 C14.2241667,8.36925 14.20725,8.21175 14.1804167,8.05658333 C14.66575,7.79583333 15,7.29125 15,6.70441667 Z M4.95266667,7.76375 C4.95266667,7.25741667 5.36683333,6.845 5.8755,6.845 C6.38416667,6.845 6.79775,7.25741667 6.79775,7.76375 C6.79775,8.27008333 6.38416667,8.68191667 5.8755,8.68191667 C5.36683333,8.68191667 4.95266667,8.27008333 4.95266667,7.76375 L4.95266667,7.76375 Z M10.23825,10.4873333 C9.77333333,10.9499167 9.04358333,11.1750833 8.00758333,11.1750833 L8,11.1733333 L7.99241667,11.1750833 C6.95583333,11.1750833 6.22608333,10.9499167 5.76175,10.4873333 C5.67716667,10.4033333 5.67716667,10.26625 5.76175,10.18225 C5.84633333,10.0976667 5.984,10.0976667 6.06858333,10.18225 C6.44775,10.5596667 7.07716667,10.7428333 7.99241667,10.7428333 L8,10.7445833 L8.00758333,10.7428333 C8.92283333,10.7428333 9.55225,10.5590833 9.93141667,10.1816667 C10.016,10.0970833 10.1536667,10.0976667 10.23825,10.1816667 C10.3228333,10.26625 10.3228333,10.40275 10.23825,10.4873333 Z M10.128,8.68191667 C9.61933333,8.68191667 9.20575,8.27008333 9.20575,7.76375 C9.20575,7.25741667 9.61933333,6.845 10.128,6.845 C10.6366667,6.845 11.05025,7.25741667 11.05025,7.76375 C11.05025,8.27008333 10.6366667,8.68191667 10.128,8.68191667 Z"/>
</svg>
