<svg xmlns="http://www.w3.org/2000/svg" width="16" height="16" viewBox="0 0 16 16">
  <path fill="#111111" fill-rule="evenodd" d="M1.00576199,1 L1.00576199,3.67227088 C7.2443556,3.67638587 12.3149106,8.75509964 12.3206726,15 L15,15 C14.9983537,11.1409676 13.429445,7.64487684 10.8941675,5.10757745 C8.35888993,2.57110105 4.86382879,1.00164599 1.00576199,1 C1.00576199,1 4.86382879,1.00164599 1.00576199,1 L1.00576199,1 L1.00576199,1 Z M1.00164628,5.76103698 L1.00164628,8.43330786 C2.74588429,8.43495385 4.39793039,9.12051026 5.63182032,10.3574746 C6.86817968,11.5911469 7.5497413,13.2445476 7.55303387,14.995062 L7.55303387,15 L10.2389464,15 C10.236477,12.4536476 9.20096425,10.1467874 7.52751646,8.47281171 C5.85406867,6.79801305 3.54762465,5.76185997 1.00164628,5.76103698 C1.00164628,5.76103698 3.54762465,5.76185997 1.00164628,5.76103698 L1.00164628,5.76103698 L1.00164628,5.76103698 Z M1.54492004,14.4403621 L1.54492004,14.4395391 L1.5440969,14.4395391 L1.54492004,14.4403621 L1.54492004,14.4403621 L1.54492004,14.4403621 L1.54492004,14.4403621 Z M4.17238946,11.821586 L4.17238946,11.822409 L4.17238946,11.821586 L4.17238946,11.821586 L4.17238946,11.821586 L4.17238946,11.821586 Z M4.17238946,11.822409 C4.51234713,12.1606607 4.71895579,12.620716 4.71977893,13.1317971 C4.71895579,13.6428781 4.51234713,14.1021104 4.17403575,14.4395391 L4.17238946,14.4403621 C3.83490122,14.7769678 3.37229539,14.9835401 2.85865475,14.9835401 C2.34419097,14.9835401 1.88323142,14.7761448 1.54492004,14.4395391 C1.20825494,14.1021104 1,13.6437011 1,13.1317971 C1,12.620716 1.20825494,12.1598378 1.54492004,11.821586 L1.54492004,11.822409 C1.88323142,11.4858033 2.34419097,11.2775851 2.85865475,11.2775851 C3.37229539,11.2775851 3.83490122,11.4858033 4.17238946,11.822409 L4.17238946,11.822409 Z"/>
</svg>
