<svg xmlns="http://www.w3.org/2000/svg" width="16" height="16" viewBox="0 0 16 16">
  <path fill="#111111" fill-rule="evenodd" d="M4.38523239,9.4426162 C4.02582178,9.78781757 3.53768982,10 3,10 C1.8954305,10 1,9.1045695 1,8 C1,6.8954305 1.8954305,6 3,6 C3.53768982,6 4.02582178,6.21218243 4.38523239,6.5573838 L11.0145781,3.24271096 C11.0049535,3.16315251 11,3.08215473 11,3 C11,1.8954305 11.8954305,1 13,1 C14.1045695,1 15,1.8954305 15,3 C15,4.1045695 14.1045695,5 13,5 C12.4623102,5 11.9741782,4.78781757 11.6147676,4.4426162 L4.98542192,7.75728904 C4.99504651,7.83684749 5,7.91784527 5,8 C5,8.08215473 4.99504651,8.16315251 4.98542192,8.24271096 L11.6147676,11.5573838 C11.9741782,11.2121824 12.4623102,11 13,11 C14.1045695,11 15,11.8954305 15,13 C15,14.1045695 14.1045695,15 13,15 C11.8954305,15 11,14.1045695 11,13 C11,12.9178453 11.0049535,12.8368475 11.0145781,12.757289 L4.38523239,9.4426162 Z"/>
</svg>
