<svg xmlns="http://www.w3.org/2000/svg" width="16" height="16" viewBox="0 0 16 16">
  <path fill="#111111" fill-rule="evenodd" d="M13,1 C14.1045695,1 15,1.8954305 15,3 C15,4.1045695 14.1045695,5 13,5 C12.4624822,5 11.9744906,4.78795333 11.6151126,4.44294752 L4.98553042,7.75818765 C4.99508374,7.83745738 5,7.91815456 5,8 C5,8.08218932 4.99504234,8.16322073 4.98540976,8.24281147 L11.6151126,11.5570525 C11.9744906,11.2120467 12.4624822,11 13,11 C14.1045695,11 15,11.8954305 15,13 C15,14.1045695 14.1045695,15 13,15 C11.8954305,15 11,14.1045695 11,13 C11,12.9181546 11.0049163,12.8374574 11.0144696,12.7581877 L4.38488735,9.44294752 C4.0255094,9.78795333 3.53751778,10 3,10 C1.8954305,10 1,9.1045695 1,8 C1,6.8954305 1.8954305,6 3,6 C3.53801001,6 4.02640312,6.21243521 4.38587433,6.55800064 L11.0145902,3.24281147 C11.0049577,3.16322073 11,3.08218932 11,3 C11,1.8954305 11.8954305,1 13,1 Z"/>
</svg>
