<svg xmlns="http://www.w3.org/2000/svg" width="16" height="16" viewBox="0 0 16 16">
  <path fill="#111111" fill-rule="evenodd" d="M11.4991769,11.2194401 C11.1904986,11.6511331 10.7344779,11.9919434 10.1418156,12.2337564 C9.55656162,12.4739466 8.85524459,12.596476 8.05597366,12.596476 C7.09701317,12.596476 6.29280339,12.4301281 5.664746,12.1014896 C5.21613358,11.8629224 4.8465428,11.5399641 4.56585136,11.1391062 C4.28186736,10.7366255 4.13864064,10.3365791 4.13864064,9.94951603 C4.13864064,9.70932591 4.23247883,9.49997102 4.41686265,9.32875442 C4.59960019,9.15834927 4.83419567,9.0731467 5.11406397,9.0731467 C5.34289746,9.0731467 5.54127469,9.1404973 5.70178739,9.27438706 C5.85571496,9.4034081 5.98741769,9.59409958 6.09360301,9.83834695 C6.21213547,10.1061265 6.34054563,10.3317104 6.47636406,10.5077957 C6.60806679,10.6798238 6.79656632,10.823451 7.0369238,10.936243 C7.27892756,11.0482235 7.60571496,11.1066481 8.00658514,11.1066481 C8.55891345,11.1066481 9.01164158,10.9897989 9.35159925,10.7609691 C9.68497178,10.5378195 9.84630762,10.2684171 9.84630762,9.93896714 C9.84630762,9.6801136 9.76152399,9.47562743 9.58866416,9.31495972 C9.40592662,9.14780038 9.16639229,9.01796789 8.87582314,8.92708514 C8.57208373,8.83457949 8.1605127,8.73314786 7.65098777,8.62765896 C6.95707902,8.4815974 6.36853246,8.3087579 5.90098777,8.1115748 C5.4219191,7.91114589 5.03586548,7.63281748 4.75352775,7.28470411 C4.46707432,6.93009911 4.32137817,6.48623428 4.32137817,5.96446995 C4.32137817,5.46786066 4.47365945,5.01912711 4.77492944,4.63287544 C5.07290687,4.24905813 5.50917215,3.94882049 6.07137817,3.74514577 C6.62535278,3.54309395 7.28386642,3.44085087 8.03045626,3.44085087 C8.6264111,3.44085087 9.15075259,3.50901293 9.58866416,3.64371414 C10.0290452,3.77841535 10.3994591,3.96018084 10.6908514,4.18495334 C10.9847131,4.4121602 11.2036689,4.65316177 11.3403104,4.90471222 C11.4785983,5.15869704 11.5493885,5.41105895 11.5493885,5.65530632 C11.5493885,5.89062772 11.4571966,6.10485133 11.2752822,6.29067409 C11.0925447,6.4789312 10.8612418,6.57387121 10.5896049,6.57387121 C10.3426623,6.57387121 10.1484008,6.51382368 10.0150517,6.39697444 C9.88993415,6.28742827 9.7598777,6.11702313 9.61582785,5.8735872 C9.44955315,5.56198922 9.24788335,5.31611894 9.01658043,5.14246798 C8.79186265,4.97368574 8.41733302,4.88929462 7.90122295,4.88929462 C7.42380056,4.88929462 7.03363123,4.98342317 6.74470837,5.17086883 C6.46648636,5.35019997 6.33066792,5.5571205 6.33066792,5.80217933 C6.33066792,5.9514867 6.37429445,6.07726193 6.46484008,6.18437373 C6.55867827,6.29960007 6.69285042,6.39859735 6.86241769,6.48298847 C7.03774694,6.56981395 7.21883819,6.63959891 7.39992944,6.6882861 C7.58513641,6.73940764 7.8962841,6.81487278 8.32349483,6.91224715 C8.86429915,7.02585058 9.36065381,7.15487162 9.79938852,7.29363009 C10.2447084,7.43320002 10.6282926,7.60522808 10.9427328,7.80727989 C11.2621119,8.01257752 11.5148166,8.27548832 11.6950847,8.59033212 C11.8753528,8.90761027 11.9667215,9.29710775 11.9667215,9.75071002 C11.9667215,10.2927607 11.8086783,10.7869356 11.4991769,11.2194401 C11.4991769,11.2194401 11.8086783,10.7869356 11.4991769,11.2194401 L11.4991769,11.2194401 L11.4991769,11.2194401 Z M14.5974835,9.48617632 C14.69873,9.03013969 14.7514111,8.55787399 14.7514111,8.07262505 C14.7514111,4.43731525 11.7625823,1.48930621 8.07408278,1.48930621 C7.68555974,1.48930621 7.30444497,1.52257578 6.93238476,1.58586912 C6.33560677,1.21503507 5.62935089,1 4.87288335,1 C2.73353716,1 1,2.70892019 1,4.8186982 C1,5.52303947 1.19426152,6.18193937 1.53174976,6.74995653 C1.44367357,7.17678085 1.39675447,7.61983423 1.39675447,8.07262505 C1.39675447,11.7095578 4.3864064,14.6567553 8.07408278,14.6567553 C8.49223895,14.6567553 8.9005174,14.6186171 9.29727187,14.5463977 C9.84301505,14.835275 10.4653104,15 11.1279398,15 C13.2664628,15 15,13.2902684 15,11.1821133 C15,10.572712 14.855127,9.99739176 14.5974835,9.48617632 L14.5974835,9.48617632 Z"/>
</svg>
