<svg xmlns="http://www.w3.org/2000/svg" width="16" height="16" viewBox="0 0 16 16">
  <path fill="#111111" fill-rule="evenodd" d="M4.40006733,3.23588572 C4.05007217,4.01987486 4.18832026,5.42452209 4.24431948,6.40684182 C3.86632472,6.61625559 3.3809981,6.24876068 3.1062519,6.24876068 C2.82042253,6.24876068 2.47917725,6.43659141 2.42551133,6.71658754 C2.38701186,6.91841807 2.47742728,7.21241401 3.12608496,7.46849379 C3.37691482,7.56765909 3.97365656,7.68432414 4.11190465,8.00981963 C4.30615196,8.46714664 3.11441846,10.5782007 1.24311103,10.8861965 C1.09669639,10.9101128 0.992281167,11.0407777 1.00044772,11.1889423 C1.03311394,11.7576844 2.30826295,11.9805147 2.87350513,12.0680135 C2.93125433,12.146179 2.97792035,12.4763411 3.05200266,12.7277543 C3.0852522,12.8403361 3.17100101,12.9750842 3.39149796,12.9750842 C3.67907731,12.9750842 4.1568207,12.7534206 4.98864251,12.8910854 C5.80413123,13.0270002 6.57062062,14.1831508 8.04235024,14.1831508 C9.41024798,14.1831508 10.22632,13.0217503 11.0114758,12.8910854 C11.4658862,12.8158364 11.8561308,12.8397528 12.2924581,12.9249183 C12.5928706,12.9838341 12.8623669,13.0165003 12.9481157,12.7213377 C13.0233646,12.4664246 13.0694473,12.1426791 13.1260299,12.0662635 C13.6860221,11.979348 14.9670044,11.7571011 14.9990873,11.188359 C15.0072538,11.0401944 14.9028386,10.9101128 14.756424,10.8856132 C12.9166161,10.582284 11.6887164,8.47764649 11.8876303,8.00923631 C12.0252951,7.68432414 12.6179536,7.56882574 12.87345,7.46791047 C13.3482768,7.28066306 13.5862735,7.05024958 13.5810236,6.78366994 C13.574607,6.44242466 13.163946,6.23884415 12.8617835,6.23884415 C12.5543711,6.23884415 12.1127939,6.60283911 11.7552155,6.40567517 C11.8112147,5.41518888 11.9488795,4.01695824 11.5994677,3.23355242 C10.9373935,1.75015628 9.46449722,1 7.99218427,1 C6.52920452,1 5.06739142,1.73965643 4.40006733,3.23588572 Z"/>
</svg>
