<svg xmlns="http://www.w3.org/2000/svg" width="16" height="16" viewBox="0 0 16 16">
  <path fill="#111111" fill-rule="evenodd" d="M8.50502734,10.7623644 C8.50996648,10.7631449 13.2474275,10.7647059 13.2787088,10.7647059 C14.2294937,10.7647059 15,10.0349469 15,9.13191889 C15,8.2296714 14.2294937,7.49991239 13.2787088,7.49991239 C13.0424531,7.49991239 12.8177221,7.54440038 12.6119245,7.62635192 C12.4752749,6.15356557 11.1738108,5 9.58669959,5 C9.1981537,5 8.81948609,5.07180516 8.48444758,5.19512273 C8.35520668,5.24273267 8.32063268,5.2919036 8.3189863,5.38712349 L8.3189863,10.5695832 C8.32063268,10.669486 8.40212854,10.7529985 8.50502734,10.7623644 C8.50502734,10.7623644 8.40212854,10.7529985 8.50502734,10.7623644 L8.50502734,10.7623644 L8.50502734,10.7623644 Z M7.96666079,5.38244055 C7.86376198,5.38244055 7.77897336,5.46283111 7.77732698,5.56195346 L7.69994708,9.24040713 L7.77732698,10.5750466 C7.77897336,10.672608 7.86376198,10.753779 7.96666079,10.753779 C8.06955959,10.753779 8.1551714,10.672608 8.15681778,10.5742661 L8.15681778,10.5758271 L8.24078321,9.24040713 L8.15681778,5.56117297 C8.1551714,5.46283111 8.06955959,5.38244055 7.96666079,5.38244055 L7.96666079,5.38244055 L7.96666079,5.38244055 L7.96666079,5.38244055 Z M7.3789028,10.7615839 C7.47521609,10.7615839 7.55506556,10.6866568 7.55671194,10.5937784 L7.55671194,10.5945589 L7.63162227,9.23962664 L7.55671194,5.8671254 C7.55506556,5.77502748 7.47521609,5.69931986 7.3789028,5.69931986 C7.28258952,5.69931986 7.20274005,5.77502748 7.20109367,5.8671254 L7.13441524,9.23884615 C7.13441524,9.24118762 7.20109367,10.5945589 7.20109367,10.5945589 C7.20274005,10.6866568 7.28258952,10.7615839 7.3789028,10.7615839 C7.3789028,10.7615839 7.28258952,10.7615839 7.3789028,10.7615839 L7.3789028,10.7615839 L7.3789028,10.7615839 Z M7.03727877,9.23962664 L6.95413653,6.40410315 C6.95249015,6.31746866 6.8792262,6.24878546 6.78867525,6.24878546 C6.69730111,6.24878546 6.62486035,6.31746866 6.62239078,6.40488364 L6.54830364,9.23962664 L6.62321397,10.6039248 C6.62486035,10.6905592 6.69730111,10.758462 6.78867525,10.758462 C6.8792262,10.758462 6.95249015,10.6905592 6.95413653,10.6023638 L6.95413653,10.6039248 L7.03727877,9.23962664 L7.03727877,9.23962664 L7.03727877,9.23962664 L7.03727877,9.23962664 Z M6.20256365,10.756901 C6.28652908,10.756901 6.3532075,10.6921202 6.35567707,10.6117297 L6.35567707,10.6125102 L6.44705121,9.23962664 L6.35567707,6.29795639 C6.3532075,6.21600484 6.28652908,6.15278508 6.20256365,6.15278508 C6.11777503,6.15278508 6.05027342,6.21600484 6.04862704,6.29795639 L5.96713118,9.23962664 L6.04862704,10.6117297 C6.05027342,10.6921202 6.11777503,10.756901 6.20256365,10.756901 C6.20256365,10.756901 6.11777503,10.756901 6.20256365,10.756901 L6.20256365,10.756901 L6.20256365,10.756901 Z M5.620568,10.7576815 C5.6979479,10.7576815 5.75968719,10.6991446 5.76297995,10.624998 L5.76297995,10.6257785 L5.8617628,9.23962664 L5.76297995,6.22068779 C5.75968719,6.14498017 5.6979479,6.08722384 5.620568,6.08722384 C5.54401129,6.08722384 5.48144882,6.14498017 5.47897924,6.22068779 L5.39089787,9.23884615 L5.47897924,10.6257785 C5.48144882,10.6991446 5.54401129,10.7576815 5.620568,10.7576815 C5.620568,10.7576815 5.54401129,10.7576815 5.620568,10.7576815 L5.620568,10.7576815 L5.620568,10.7576815 Z M5.0435115,6.19649257 C4.97354031,6.19649257 4.91591698,6.25034644 4.9134474,6.31902964 L4.81795731,9.23884615 L4.9134474,10.6335834 C4.91591698,10.7014861 4.97354031,10.75534 5.0435115,10.75534 C5.11348268,10.75534 5.17028282,10.7014861 5.17357559,10.6328029 L5.17357559,10.6335834 L5.28141354,9.23884615 L5.17357559,6.31902964 C5.17028282,6.25034644 5.11348268,6.19649257 5.0435115,6.19649257 L5.0435115,6.19649257 L5.0435115,6.19649257 L5.0435115,6.19649257 Z M4.47057094,10.7576815 C4.53395661,10.7576815 4.5858176,10.709291 4.58911037,10.6476322 L4.58911037,10.6484127 L4.70518022,9.23884615 L4.58911037,6.54303053 C4.5858176,6.48137175 4.53395661,6.43220083 4.47057094,6.43220083 C4.40800847,6.43220083 4.35614747,6.48137175 4.35285471,6.54303053 L4.25077909,9.23884615 L4.35285471,10.6476322 C4.35614747,10.709291 4.40800847,10.7576815 4.47057094,10.7576815 C4.47057094,10.7576815 4.40800847,10.7576815 4.47057094,10.7576815 L4.47057094,10.7576815 L4.47057094,10.7576815 Z M4.13306286,9.23884615 L4.0087611,7.04488619 C4.00546834,6.98869085 3.95936967,6.94576385 3.90256953,6.94576385 C3.84659258,6.94576385 3.79967072,6.98869085 3.79720115,7.04488619 L3.68771682,9.23884615 L3.79720115,10.6569981 C3.79967072,10.7116325 3.84659258,10.7561205 3.90256953,10.7561205 C3.95936967,10.7561205 4.00546834,10.7116325 4.0087611,10.6562176 L4.0087611,10.6569981 L4.13306286,9.23884615 L4.13306286,9.23884615 L4.13306286,9.23884615 L4.13306286,9.23884615 Z M3.33950726,10.7436326 C3.38972188,10.7436326 3.43005821,10.7053886 3.43335097,10.6562176 L3.56588464,9.23806566 L3.43335097,7.88937736 C3.43005821,7.83942594 3.38972188,7.80118189 3.33950726,7.80118189 C3.28929264,7.80118189 3.24813312,7.83942594 3.24566355,7.89015785 L3.12877051,9.23806566 L3.24566355,10.6562176 C3.24813312,10.7053886 3.28929264,10.7436326 3.33950726,10.7436326 C3.33950726,10.7436326 3.28929264,10.7436326 3.33950726,10.7436326 L3.33950726,10.7436326 L3.33950726,10.7436326 Z M2.78056095,10.7202179 C2.82336685,10.7202179 2.85876404,10.6882178 2.86287999,10.6437298 L3.00282237,9.23806566 L2.86287999,7.78479158 C2.85876404,7.7403036 2.82336685,7.70752298 2.78056095,7.70752298 C2.73693185,7.70752298 2.70153466,7.7403036 2.6982419,7.78479158 L2.57476333,9.23806566 L2.6982419,10.6437298 C2.70153466,10.6882178 2.73693185,10.7202179 2.78056095,10.7202179 C2.78056095,10.7202179 2.73693185,10.7202179 2.78056095,10.7202179 L2.78056095,10.7202179 L2.78056095,10.7202179 Z M2.29652496,7.82303563 C2.29158582,7.78557207 2.26195096,7.7574744 2.22573058,7.7574744 C2.18868701,7.7574744 2.15905215,7.78557207 2.15575939,7.82303563 C2.15575939,7.82381612 2.02487211,9.23806566 2.02487211,9.23806566 L2.15575939,10.6008028 C2.15905215,10.6382664 2.18868701,10.6655835 2.22573058,10.6655835 C2.26195096,10.6655835 2.29158582,10.6382664 2.29570177,10.6008028 L2.44469924,9.23806566 L2.29652496,7.82303563 L2.29652496,7.82303563 L2.29652496,7.82303563 L2.29652496,7.82303563 Z M1.15805257,10.0138736 C1.18686423,10.0138736 1.20991357,9.99280037 1.21402952,9.96236122 L1.3358617,9.23728517 L1.21402952,8.49972125 C1.20991357,8.46928211 1.18686423,8.44820885 1.15805257,8.44820885 C1.1292409,8.44820885 1.10619157,8.4700626 1.10207562,8.50050174 L1,9.23728517 L1.10207562,9.96236122 C1.10619157,9.99280037 1.1292409,10.0138736 1.15805257,10.0138736 C1.15805257,10.0138736 1.1292409,10.0138736 1.15805257,10.0138736 L1.15805257,10.0138736 L1.15805257,10.0138736 Z M1.67583936,10.4571925 C1.70547422,10.4571925 1.72934674,10.4345582 1.73428588,10.4033386 L1.89069207,9.23728517 L1.73428588,8.04469505 C1.72934674,8.01347541 1.70547422,7.99162167 1.67583936,7.99162167 C1.6462045,7.99162167 1.62150879,8.01425591 1.61739284,8.04469505 C1.61739284,8.04547554 1.47992003,9.23728517 1.47992003,9.23728517 L1.61739284,10.4033386 C1.62150879,10.4345582 1.6462045,10.4571925 1.67583936,10.4571925 L1.67583936,10.4571925 Z"/>
</svg>
