<svg xmlns="http://www.w3.org/2000/svg" width="16" height="16" viewBox="0 0 16 16">
  <path fill="#111111" fill-rule="evenodd" d="M8.62022083,1 L8.62022083,4.5382716 L11.7912688,4.5382716 L11.7912688,6.73580247 L8.62022083,6.73580247 L8.62022083,10.3259259 C8.62022083,11.1382716 8.66108688,11.6592593 8.74360486,11.8888889 C8.82455106,12.1201646 8.97701285,12.3037037 9.2017761,12.4419753 C9.49648316,12.6271605 9.83441393,12.7193416 10.2163543,12.7193416 C10.8930017,12.7193416 11.5649338,12.4888889 12.2352941,12.0279835 L12.2352941,14.2378601 C11.6631695,14.5176955 11.1468427,14.7160494 10.6839561,14.8288066 C10.2202837,14.9440329 9.72046053,15 9.18212896,15 C8.57071005,15 8.03002083,14.9193416 7.56163307,14.7580247 C7.09245943,14.5950617 6.69087194,14.3662551 6.36001415,14.0666667 C6.02837047,13.7670782 5.79732013,13.4485597 5.67000668,13.1111111 C5.54190734,12.7744856 5.47825062,12.2855967 5.47825062,11.6460905 L5.47825062,6.73580247 L4,6.73580247 L4,4.75473251 C4.52654328,4.57530864 4.97606979,4.31934156 5.35015128,3.98600823 C5.72423278,3.6526749 6.02522692,3.2526749 6.25156195,2.78436214 C6.47789697,2.31687243 6.63428818,1.7218107 6.71916382,1 L8.62022083,1"/>
</svg>
