<svg xmlns="http://www.w3.org/2000/svg" width="16" height="16" viewBox="0 0 16 16">
  <path fill="#111111" fill-rule="evenodd" d="M1.94033333,1 L1,3.40275 L1,13.22375 L4.34308333,13.22375 L4.34308333,15 L6.22375,15 L8,13.22375 L10.7165833,13.22375 L14.3735,9.56683333 L14.3735,1 L1.94033333,1 Z M13.1193333,8.94033333 L11.0298333,11.0298333 L7.68675,11.0298333 L5.9105,12.8060833 L5.9105,11.0298333 L3.0895,11.0298333 L3.0895,2.25358333 L13.1193333,2.25358333 L13.1193333,8.94033333 L13.1193333,8.94033333 Z M11.0298333,4.65691667 L11.0298333,8.30975 L9.77625,8.30975 L9.77625,4.65691667 L11.0298333,4.65691667 Z M7.68675,4.65691667 L7.68675,8.30975 L6.43316667,8.30975 L6.43316667,4.65691667 L7.68675,4.65691667 L7.68675,4.65691667 Z"/>
</svg>
