<svg xmlns="http://www.w3.org/2000/svg" width="16" height="16" viewBox="0 0 16 16">
  <path fill="#111111" fill-rule="evenodd" d="M16,2.55952017 C15.4121031,2.82499065 14.7791278,3.00292249 14.1151611,3.08380059 C14.7932148,2.67274952 15.3134942,2.02001563 15.5586077,1.24453733 C14.9237542,1.62514018 14.2222222,1.90107724 13.4727945,2.04951235 C12.8755063,1.40439053 12.0218348,1 11.0770676,1 C9.26548101,1 7.79573869,2.49006015 7.79573869,4.32646889 C7.79573869,4.58718184 7.82391266,4.84028273 7.88026061,5.08386856 C5.15208077,4.94399701 2.73381464,3.62235362 1.11381112,1.60706154 C0.831132242,2.10089374 0.669601456,2.67274952 0.669601456,3.28171407 C0.669601456,4.43398919 1.24904619,5.45305332 2.12995246,6.04964828 C1.59276868,6.03347266 1.08563714,5.88313454 0.642366614,5.63479118 L0.642366614,5.67570598 C0.642366614,7.28755904 1.77402125,8.6320386 3.27663321,8.93747239 C3.00146739,9.01549597 2.71127546,9.05450776 2.4116922,9.05450776 C2.20038739,9.05450776 1.99377825,9.03452612 1.79374303,8.99551432 C2.21165698,10.3162062 3.42313788,11.2781799 4.86001057,11.3048221 C3.73680812,12.1963843 2.32059635,12.7282768 0.783236485,12.7282768 C0.518401127,12.7282768 0.256383166,12.7130526 0,12.6826044 C1.45283794,13.625548 3.17896343,14.1764706 5.03187181,14.1764706 C11.0704936,14.1764706 14.3715443,9.10874367 14.3715443,4.71182927 C14.3715443,4.5681517 14.3687269,4.42352262 14.3630921,4.28174805 C15.0045196,3.81265504 15.5614251,3.22747817 16,2.55952017"/>
</svg>
