<svg xmlns="http://www.w3.org/2000/svg" width="16" height="16" viewBox="0 0 16 16">
  <path fill="#111111" fill-rule="evenodd" d="M14.9929565,4.85629661 C14.9320424,6.24818408 13.978819,8.15172063 12.1398717,10.5660647 C10.2367177,13.0914906 8.62414041,14.3529412 7.30625563,14.3529412 C6.49132376,14.3529412 5.80068958,13.5854676 5.23682257,12.0446296 C4.85899052,10.6317039 4.48362796,9.21877826 4.10661908,7.8092187 C3.68680569,6.26753922 3.23735841,5.49838254 2.75663093,5.49838254 C2.65208916,5.49838254 2.28742773,5.72307055 1.65853081,6.17244655 L1,5.30567261 C1.68981102,4.68714946 2.36974408,4.0652602 3.04062234,3.44673705 C3.95927281,2.63297938 4.64990699,2.20632463 5.11087856,2.16256517 C6.19745439,2.05484957 6.86750948,2.81390792 7.12022068,4.4397402 C7.38939515,6.19432628 7.57872275,7.28494669 7.68326452,7.71244297 C7.99771298,9.16744505 8.34179532,9.89284226 8.71880421,9.89284226 C9.01102726,9.89284226 9.45059657,9.42326959 10.036689,8.48244118 C10.6227814,7.54077124 10.9347604,6.82547235 10.9775649,6.33233689 C11.0615276,5.51942075 10.7479023,5.11464573 10.036689,5.11464573 C9.70166144,5.11464573 9.35593277,5.18701715 9.00114929,5.33933373 C9.69260664,3.05037731 11.0096683,1.93787717 12.9556268,2.00267483 C14.3969861,2.04475124 15.0777423,2.99736104 14.9929565,4.85629661"/>
</svg>
