<svg xmlns="http://www.w3.org/2000/svg" width="16" height="16" viewBox="0 0 16 16">
  <path fill="#111111" fill-rule="evenodd" d="M8.22645565,12.7464686 C8.60709016,12.7464686 8.76271905,12.4927123 8.75834394,12.1745794 C8.73896846,10.9764244 9.2046051,10.3314083 10.0452511,11.1720543 C10.9752744,12.1020775 11.1677792,12.7464686 12.2971824,12.7464686 L14.2972324,12.7464686 C14.802245,12.7464686 15.001,12.5839646 15.001,12.3289582 C15.001,11.7895697 14.1128528,10.8376709 13.360334,10.1389035 C12.3065576,9.16075401 12.2571814,9.13762843 13.1647041,7.960099 C14.2903572,6.49818745 15.762894,4.62501562 14.4603615,4.62501562 L11.9721743,4.62501562 C11.4896622,4.62501562 11.4546613,4.89689742 11.2827821,5.30190755 C10.6608915,6.76881922 9.47898696,8.66886671 9.03022574,8.37823445 C8.56083901,8.07510187 8.77584438,6.87444686 8.81147027,5.09002725 C8.82084551,4.61876547 8.81834544,4.29563239 8.09832744,4.1281282 C7.70519262,4.03750094 7.32268305,4 6.96767418,4 C5.54701367,4 4.56698917,4.59563989 5.12387809,4.69939248 C6.10577763,4.88252206 6.01140027,7.00695017 5.78264456,7.92447311 C5.38388459,9.52201304 3.88509712,6.65944148 3.26070651,5.23378084 C3.11007775,4.89127228 3.06382659,4.62501562 2.52631315,4.62501562 L0.491887296,4.62501562 C0.184379609,4.62501562 0,4.72501812 0,4.94752369 C0,5.32378309 1.85004625,9.14762868 3.6163404,11.0539263 C5.33888346,12.9133478 7.04142602,12.7464686 8.22645565,12.7464686 L8.22645565,12.7464686 Z"/>
</svg>
