<svg xmlns="http://www.w3.org/2000/svg" width="16" height="16" viewBox="0 0 16 16">
  <path fill="#000000" d="M1,15 L1.98408333,11.4049167 C1.37683333,10.3525833 1.05775,9.15966667 1.05833333,7.93641667 C1.06008333,4.11208333 4.17216667,1 7.99591667,1 C9.8515,1.00058333 11.5933333,1.72333333 12.9035,3.03466667 C14.2130833,4.346 14.9340833,6.089 14.9335004,7.94283333 C14.93175,11.76775 11.8196667,14.8798333 7.99591667,14.8798333 C6.83508333,14.87925 5.69116667,14.5881667 4.67791667,14.0351667 L1,15 Z M4.84825,12.77925 C5.82591667,13.3596667 6.75925,13.7073333 7.99358333,13.7079167 C11.1715833,13.7079167 13.7604167,11.1214167 13.7621671,7.94166667 C13.7633333,4.7555 11.18675,2.1725 7.99825,2.17133333 C4.81791667,2.17133333 2.23083333,4.75783333 2.229666,7.937 C2.22908333,9.23491667 2.60941667,10.20675 3.24816667,11.2235 L2.66541667,13.3515 L4.84825,12.77925 Z M9.97341667,8.82541667 C9.81475,8.76766667 9.69925,8.7385 9.58316667,8.91233333 C9.46766667,9.08558333 9.13516667,9.47641667 9.03425,9.59191667 C8.93333333,9.70741667 8.83183333,9.722 8.65858333,9.63508333 C8.48533333,9.54816667 7.9265,9.36558333 7.26441667,8.77466667 C6.74933333,8.315 6.40108333,7.74741667 6.30016667,7.57358333 C6.19925,7.40033333 6.28966667,7.30641667 6.376,7.22008333 C6.45416667,7.1425 6.75283333,6.7435 6.81116667,6.62741667 C6.86891667,6.51191667 6.84033333,6.41041667 6.79658333,6.3235 C6.75283333,6.23716667 6.40633333,5.38375 6.26225,5.03666667 C6.12108333,4.69891667 5.97816667,4.74441667 5.872,4.73916667 C5.44811111,4.76405556 5.18327778,4.83444444 5.0775,4.95033333 C4.91883333,5.12416667 4.47083333,5.543 4.47083333,6.39641667 C4.47083333,7.24983333 5.09208333,8.07408333 5.17841667,8.18958333 C5.26533333,8.30508333 6.4005,10.05625 8.13941667,10.807 C8.553,10.9855 8.87616667,11.09225 9.12758333,11.1721667 C9.54291667,11.304 9.92091667,11.2853333 10.2195833,11.241 C10.5526667,11.1914167 11.2450833,10.8215833 11.38975,10.41675 C11.5344167,10.0113333 11.5344167,9.66425 11.4906667,9.59191667 C11.4475,9.51958333 10.1326667,8.88316667 9.97341667,8.82541667 Z"/>
</svg>
