<svg xmlns="http://www.w3.org/2000/svg" width="16" height="16" viewBox="0 0 16 16">
  <path fill="#111111" fill-rule="evenodd" d="M14.142286,4.6413331 C14.1735654,4.86433903 14.1908514,5.10298007 14.1908514,5.36219362 C14.1908514,6.07071063 14.0575024,6.86974666 13.6574553,7.86874743 L11.5205786,14.0487274 C13.6006585,12.8365955 15,10.5826721 15,8.00041145 C15,6.78251925 14.6888523,5.63868806 14.142286,4.6413331 C14.142286,4.6413331 14.6888523,5.63868806 14.142286,4.6413331 L14.142286,4.6413331 L14.142286,4.6413331 Z M8.12347131,8.61264915 L6.02281279,14.7152766 C6.64922389,14.8996062 7.31185325,15 8.00082314,15 C8.81573377,15 9.59771872,14.8584612 10.3253763,14.6017163 C10.306444,14.5720919 10.289158,14.5408217 10.2751646,14.5062599 L8.12347131,8.61264915 L8.12347131,8.61264915 L8.12347131,8.61264915 L8.12347131,8.61264915 Z M12.7264817,7.64656439 C12.7264817,6.78087345 12.4145108,6.18180215 12.1486359,5.71604067 C11.7938617,5.13918768 11.4613123,4.6520308 11.4613123,4.073532 C11.4613123,3.430847 11.9486124,2.8325986 12.6375823,2.8325986 C12.6672154,2.8325986 12.6968485,2.8358902 12.7273048,2.837536 C11.4818909,1.69699641 9.82325964,1 8.00082314,1 C5.55444497,1 3.40275165,2.25492271 2.15157573,4.15499912 C2.31702728,4.15993652 2.47095484,4.16405102 2.60183443,4.16405102 C3.33443086,4.16405102 4.46789746,4.073532 4.46789746,4.073532 C4.84407338,4.0529595 4.88934619,4.60594839 4.51152399,4.6520308 C4.51152399,4.6520308 4.13287865,4.69564451 3.71060677,4.71868571 L6.26070085,12.2992418 L7.7925682,7.7049903 L6.70108184,4.71868571 C6.32408278,4.69564451 5.96766228,4.6520308 5.96766228,4.6520308 C5.58984008,4.6289896 5.63428975,4.0529595 6.01211195,4.073532 C6.01211195,4.073532 7.16780339,4.16405102 7.85595014,4.16405102 C8.58690028,4.16405102 9.72201317,4.073532 9.72201317,4.073532 C10.0981891,4.0529595 10.1426388,4.60594839 9.7656397,4.6520308 C9.7656397,4.6520308 9.38699436,4.69564451 8.96472248,4.71868571 L11.4950611,12.2408158 L12.1939087,9.90953976 C12.5478598,8.99941221 12.7264817,8.24645859 12.7264817,7.64656439 C12.7264817,7.64656439 12.7264817,8.24645859 12.7264817,7.64656439 L12.7264817,7.64656439 L12.7264817,7.64656439 Z M1,8.00041145 C1,10.7694704 2.61006585,13.1649327 4.94531985,14.2980662 L1.60665569,5.15070828 C1.2173095,6.02215953 1,6.98495268 1,8.00041145 L1,8.00041145 Z"/>
</svg>
